# xmcd CD database file
#
# Track frame offsets:
#	150
#	27620
#	55325
#	86532
#	121029
#	151250
#
# Disc length: 2266 seconds
#
# Revision: 0
# Processed by: cddbd v1.5.1PL0 Copyright (c) Steve Scherf et al.
# Submitted via: CDex 1.51
#
DISCID=4208d806
DTITLE=Miguel Quintana - Don Gonzalo Fernandez Presenta
DYEAR=1900
DGENRE=Salsa
TTITLE0=Mambo Congo
TTITLE1=Igualita Que Tu
TTITLE2=Lance Grave
TTITLE3=Cherie Amor
TTITLE4=Enredadera
TTITLE5=Sierra Morena
EXTD=
EXTT0=
EXTT1=
EXTT2=
EXTT3=
EXTT4=
EXTT5=
PLAYORDER=
